<svg xmlns="http://www.w3.org/2000/svg" width="480" height="481" fill="none" viewBox="0 0 480 481">
  <path fill="#727272" d="m147.947 437.983 1.75.792 8.364-18.475-1.749-.792-8.365 18.475Zm-72.464-54.384 1.276 1.434 15.147-13.486-1.277-1.434-15.146 13.486Zm-44.09-79.093.584 1.829 19.319-6.169-.584-1.829-19.32 6.169h.001Zm-8.184-90.225L23 216.19l20.16 2.208.209-1.909-20.16-2.208Zm29.173-85.765-.966 1.659 17.526 10.204.966-1.659-17.526-10.204Zm61.492-66.509-1.556 1.124 11.868 16.444 1.557-1.124-11.869-16.444ZM197.087 26.2l-1.879.394 4.168 19.847 1.879-.395-4.168-19.847v.001Zm90.561 1.1-1.877-.403-4.255 19.829 1.877.403 4.255-19.829Zm82.343 37.763-1.552-1.13-11.941 16.391 1.552 1.13 11.941-16.391Zm59.856 67.972-.959-1.664-17.57 10.128.958 1.664 17.571-10.128ZM457 219.457l-.201-1.909-20.168 2.12.2 1.909 20.169-2.12Zm-10.35 89.954.592-1.826-19.29-6.257-.593 1.827 19.291 6.256Zm-45.965 78.071 1.283-1.428-15.088-13.552-1.283 1.428 15.088 13.552Zm-73.693 52.603 1.753-.784-8.281-18.512-1.753.784 8.281 18.512Z"/>
  <path fill="#CBD5E0" d="m142.235 412.331-7.981 14.212 1.377.774 7.982-14.212-1.378-.774Zm-14.044-8.738-9.143 13.495 1.308.886 9.143-13.494-1.308-.887Zm-13.27-9.879-10.24 12.682 1.229.992 10.24-12.682-1.229-.992Zm-12.375-11.024-11.263 11.782 1.142 1.092 11.264-11.782-1.143-1.092Zm-21.827-24.83-13.07 9.739.943 1.267 13.071-9.739-.944-1.267Zm-9.242-13.742-13.838 8.614.835 1.341 13.838-8.614-.835-1.341Zm-8.095-14.429-14.51 7.426.72 1.406 14.51-7.425-.72-1.407Zm-6.874-15.062-15.08 6.185.599 1.462 15.08-6.185-.599-1.462Zm-9.799-31.589-15.9 3.586.347 1.541 15.9-3.586-.347-1.541ZM43.8 266.752l-16.144 2.244.217 1.565 16.145-2.244-.218-1.565Zm-1.532-16.478-16.276.884.086 1.578 16.276-.884-.086-1.578ZM25.84 233.255l-.047 1.58 16.293.48.047-1.579-16.293-.481Zm4.164-35.562-.31 1.549 15.986 3.189.309-1.55-15.985-3.188Zm4.311-17.397-.438 1.518 15.662 4.515.438-1.518-15.662-4.515Zm5.737-16.958-.563 1.476 15.229 5.81.563-1.476-15.23-5.81h.001Zm7.143-16.454-.685 1.424 14.692 7.061.684-1.425-14.691-7.06Zm18.267-30.772-.913 1.289 13.308 9.413.912-1.29-13.308-9.412h.001Zm10.991-14.16-1.017 1.209 12.476 10.49 1.017-1.209-12.476-10.49ZM88.609 88.79l-1.115 1.12 11.554 11.498 1.115-1.12-11.554-11.497v-.001Zm13.193-12.1-1.204 1.023 10.551 12.424 1.205-1.023-10.552-12.424Zm29.207-20.717-1.358.808 8.334 14.008 1.358-.808-8.334-14.008Zm15.796-8.453-1.421.692 7.133 14.656 1.42-.691-7.132-14.657Zm16.461-7.081-1.473.57 5.881 15.202 1.474-.57-5.882-15.202Zm16.986-5.689-1.516.444 4.589 15.641 1.516-.444-4.589-15.641Zm35.088-7.06-1.569.187 1.919 16.186 1.569-.186-1.919-16.186v-.001Zm17.878-1.288-1.579.054.558 16.29 1.579-.053-.558-16.29v-.001Zm16.35.119-.808 16.28 1.578.078.808-16.28-1.578-.078Zm17.815 1.564-2.165 16.156 1.566.21 2.165-16.156-1.566-.21Zm35.02 7.59-4.828 15.568 1.509.468 4.828-15.569-1.509-.468v.001Zm16.856 5.941-6.111 15.11 1.465.593 6.111-15.11-1.465-.593Zm16.35 7.352-7.355 14.546 1.41.713 7.355-14.547-1.41-.712Zm15.683 8.699-8.546 13.88 1.345.828 8.546-13.88-1.345-.828Zm28.865 21.121L369.418 91.05l1.189 1.041 10.739-12.262-1.189-1.041Zm13.028 12.315-11.727 11.32 1.098 1.137 11.727-11.32-1.098-1.137Zm11.95 13.375-12.634 10.299.999 1.225 12.633-10.3-.998-1.224Zm10.793 14.328-13.451 9.207.892 1.304 13.451-9.207-.892-1.304Zm17.783 31.025-14.796 6.837.662 1.434 14.797-6.837-.663-1.434Zm6.894 16.566-15.317 5.575.54 1.485 15.317-5.575-.54-1.485Zm5.478 17.064-15.73 4.274.415 1.525 15.729-4.274-.414-1.525Zm4.042 17.411-16.032 2.945.285 1.554 16.032-2.945-.285-1.554Zm3.607 35.656-16.298.23.022 1.58 16.299-.23-.023-1.58Zm-16.712 16.727-.109 1.576 16.26 1.132.11-1.576-16.261-1.132Zm-1.748 16.476-.241 1.562 16.109 2.488.241-1.562-16.109-2.488Zm-3.126 16.263-.371 1.536 15.845 3.827.371-1.536-15.845-3.827Zm-10.322 31.394-.621 1.453 14.985 6.413.622-1.452-14.986-6.414Zm-7.077 14.97-.741 1.395 14.396 7.645.741-1.395-14.396-7.645Zm-8.306 14.332-.855 1.329 13.706 8.823.855-1.329-13.706-8.823Zm-9.468 13.592-.964 1.253 12.92 9.938.963-1.252-12.919-9.939Zm-22.201 24.486-1.158 1.074 11.083 11.953 1.159-1.075-11.084-11.952Zm-12.547 10.806-1.245.974 10.045 12.838 1.244-.974-10.044-12.838Zm-13.429 9.727-1.322.867 8.935 13.633 1.322-.867-8.935-13.633Zm-14.149 8.482-1.389.753 7.765 14.331 1.389-.752-7.765-14.332Z" opacity=".35"/>
</svg>
