<svg width="480" height="480" viewBox="0 0 480 480" fill="none" xmlns="http://www.w3.org/2000/svg">
<rect width="480" height="480" fill="black"/>
<rect x="20" y="20" width="440" height="440" fill="black"/>
<g clip-path="url(#clip0_2268_1979)">
<path d="M238.969 21.9258H240.067C240.136 21.9258 240.214 21.9307 240.302 21.9404C240.38 21.9502 240.468 21.96 240.565 21.9697C240.673 21.9697 240.785 21.9795 240.902 21.999C240.854 22.8096 240.814 23.5176 240.785 24.1231C240.766 24.7285 240.751 25.2363 240.741 25.6465C240.731 26.125 240.731 26.5303 240.741 26.8623C240.741 27.2139 240.756 27.6729 240.785 28.2393C240.805 28.7275 240.834 29.3574 240.873 30.1289C240.912 30.9004 240.966 31.8428 241.034 32.9561C240.956 32.9561 240.873 32.9609 240.785 32.9707C240.697 32.9707 240.614 32.9756 240.536 32.9854C240.439 32.9951 240.351 33 240.273 33C240.185 33 240.087 33.0098 239.98 33.0293C239.892 33.0488 239.794 33.0684 239.687 33.0879C239.579 33.1074 239.467 33.1367 239.35 33.1758C239.369 32.1699 239.384 31.3398 239.394 30.6855C239.403 30.0312 239.408 29.499 239.408 29.0889C239.408 28.6201 239.403 28.249 239.394 27.9756C239.374 27.5361 239.345 27.0137 239.306 26.4082C239.276 25.8906 239.232 25.2607 239.174 24.5186C239.115 23.7666 239.047 22.9023 238.969 21.9258Z" fill="white" fill-opacity="0.36"/>
<path d="M261.771 23.0127L262.863 23.1275C262.931 23.1347 263.008 23.1477 263.095 23.1666C263.171 23.1845 263.258 23.2034 263.354 23.2233C263.461 23.2345 263.571 23.256 263.686 23.2876C263.553 24.0887 263.44 24.7887 263.347 25.3878C263.265 25.9879 263.197 26.4914 263.144 26.8983C263.085 27.3732 263.042 27.7762 263.017 28.1074C262.981 28.4571 262.947 28.9151 262.917 29.4814C262.885 29.9691 262.849 30.5986 262.807 31.3699C262.765 32.1413 262.72 33.0841 262.672 34.1985C262.594 34.1903 262.511 34.1865 262.422 34.187C262.335 34.1778 262.252 34.174 262.173 34.1755C262.075 34.175 261.987 34.1707 261.91 34.1625C261.822 34.1533 261.724 34.1529 261.615 34.161C261.526 34.1713 261.426 34.1805 261.318 34.1887C261.209 34.1969 261.094 34.2143 260.973 34.2409C261.098 33.2426 261.199 32.4186 261.277 31.7689C261.355 31.1192 261.416 30.5904 261.459 30.1825C261.508 29.7163 261.542 29.3467 261.561 29.0738C261.587 28.6347 261.613 28.112 261.637 27.5058C261.662 26.988 261.684 26.3569 261.703 25.6127C261.724 24.8587 261.746 23.9921 261.771 23.0127Z" fill="white" fill-opacity="0.36"/>
<path d="M284.329 26.4766L285.404 26.705C285.471 26.7192 285.546 26.7402 285.63 26.768C285.704 26.7938 285.788 26.8217 285.882 26.8515C285.987 26.8739 286.095 26.9068 286.205 26.9502C285.989 27.7329 285.804 28.4173 285.649 29.0035C285.504 29.5916 285.384 30.0853 285.289 30.4845C285.18 30.9505 285.096 31.3469 285.036 31.6737C284.963 32.0176 284.882 32.4696 284.793 33.0297C284.711 33.5114 284.608 34.1336 284.486 34.8963C284.364 35.6591 284.221 36.592 284.056 37.6952C283.98 37.679 283.897 37.6665 283.809 37.6578C283.723 37.6395 283.641 37.627 283.563 37.6203C283.465 37.6096 283.378 37.5961 283.302 37.5798C283.216 37.5616 283.118 37.5508 283.009 37.5476C282.919 37.5484 282.82 37.5472 282.71 37.544C282.601 37.5407 282.485 37.5461 282.363 37.5599C282.591 36.5801 282.778 35.7712 282.923 35.1332C283.069 34.4952 283.184 33.9757 283.27 33.5745C283.367 33.116 283.44 32.752 283.487 32.4825C283.559 32.0486 283.639 31.5314 283.727 30.9311C283.806 30.4187 283.894 29.7935 283.991 29.0553C284.09 28.3076 284.203 27.448 284.329 26.4766Z" fill="white" fill-opacity="0.36"/>
<path d="M306.407 32.2803L307.452 32.6198C307.517 32.6409 307.59 32.6697 307.67 32.7061C307.742 32.7396 307.822 32.776 307.912 32.8155C308.014 32.8487 308.118 32.8927 308.224 32.9475C307.927 33.7032 307.671 34.3645 307.456 34.9313C307.25 35.5011 307.079 35.9795 306.943 36.3666C306.786 36.8187 306.661 37.2041 306.567 37.5229C306.459 37.8573 306.331 38.2983 306.184 38.8461C306.051 39.3165 305.885 39.9246 305.683 40.6704C305.482 41.4162 305.242 42.329 304.963 43.409C304.889 43.3848 304.808 43.3638 304.722 43.3459C304.638 43.3188 304.558 43.2978 304.48 43.2829C304.384 43.262 304.299 43.2395 304.225 43.2154C304.141 43.1882 304.046 43.1673 303.937 43.1527C303.848 43.1441 303.749 43.1325 303.641 43.1179C303.532 43.1033 303.417 43.0964 303.293 43.0974C303.622 42.1468 303.893 41.3618 304.104 40.7426C304.316 40.1233 304.485 39.6187 304.612 39.2286C304.757 38.7828 304.867 38.4283 304.942 38.1653C305.059 37.7413 305.193 37.2353 305.343 36.6474C305.475 36.1461 305.627 35.5335 305.801 34.8095C305.978 34.0763 306.18 33.2332 306.407 32.2803Z" fill="white" fill-opacity="0.36"/>
<path d="M327.755 40.3594L328.759 40.8062C328.821 40.834 328.89 40.8703 328.967 40.915C329.034 40.9556 329.11 41.0003 329.196 41.049C329.294 41.0927 329.392 41.1473 329.492 41.2128C329.117 41.9334 328.794 42.5643 328.521 43.1055C328.256 43.6507 328.037 44.1086 327.861 44.4793C327.657 44.9125 327.492 45.2828 327.366 45.59C327.223 45.9112 327.05 46.3365 326.846 46.8658C326.666 47.3198 326.436 47.9072 326.158 48.6279C325.88 49.3485 325.546 50.2313 325.155 51.2761C325.084 51.2444 325.006 51.2151 324.922 51.1882C324.842 51.1525 324.764 51.1232 324.688 51.1003C324.595 51.0695 324.513 51.0382 324.442 51.0065C324.361 50.9707 324.268 50.9399 324.162 50.9141C324.074 50.8962 323.977 50.8743 323.871 50.8484C323.765 50.8226 323.65 50.8037 323.527 50.7917C323.954 49.8807 324.305 49.1284 324.58 48.5346C324.855 47.9409 325.076 47.4566 325.243 47.0819C325.434 46.6537 325.58 46.3127 325.682 46.0589C325.843 45.6495 326.029 45.1603 326.24 44.5913C326.423 44.1066 326.639 43.5133 326.888 42.8114C327.14 42.1006 327.429 41.2833 327.755 40.3594Z" fill="white" fill-opacity="0.36"/>
<path d="M348.144 50.627L349.095 51.1763C349.154 51.2104 349.219 51.2537 349.291 51.3061C349.353 51.3537 349.425 51.4061 349.504 51.4634C349.597 51.5171 349.69 51.5817 349.781 51.6572C349.334 52.3347 348.946 52.9283 348.618 53.438C348.298 53.9526 348.032 54.3851 347.818 54.7354C347.57 55.1449 347.368 55.4959 347.21 55.7883C347.034 56.0928 346.818 56.4976 346.56 57.0028C346.333 57.4354 346.043 57.9956 345.691 58.6832C345.339 59.3709 344.915 60.2139 344.417 61.2122C344.349 61.1731 344.275 61.1358 344.194 61.1003C344.118 61.0564 344.044 61.0191 343.971 60.9885C343.882 60.9481 343.803 60.9084 343.735 60.8694C343.659 60.8254 343.57 60.785 343.467 60.7483C343.381 60.7212 343.287 60.6893 343.184 60.6525C343.081 60.6157 342.969 60.5849 342.848 60.5602C343.368 59.6988 343.796 58.9873 344.132 58.4255C344.467 57.8638 344.737 57.4053 344.943 57.0501C345.177 56.6441 345.358 56.3203 345.487 56.0786C345.689 55.6883 345.925 55.2212 346.194 54.6773C346.428 54.2144 346.704 53.6469 347.025 52.9749C347.35 52.2944 347.723 51.5117 348.144 50.627Z" fill="white" fill-opacity="0.36"/>
<path d="M367.344 62.9678L368.233 63.6135C368.288 63.6537 368.348 63.7036 368.414 63.7631C368.471 63.817 368.536 63.8765 368.61 63.9418C368.697 64.005 368.782 64.0789 368.865 64.1636C368.349 64.7906 367.901 65.3404 367.522 65.8131C367.15 66.2914 366.84 66.6936 366.591 67.0197C366.302 67.4011 366.063 67.729 365.876 68.0033C365.669 68.2878 365.411 68.6677 365.102 69.1431C364.831 69.5496 364.484 70.0765 364.063 70.7236C363.641 71.3707 363.13 72.1646 362.531 73.1055C362.468 73.0596 362.398 73.0147 362.321 72.971C362.25 72.9193 362.18 72.8745 362.111 72.8364C362.026 72.7869 361.952 72.7392 361.889 72.6933C361.818 72.6416 361.733 72.5921 361.635 72.5448C361.552 72.5089 361.462 72.4673 361.363 72.42C361.265 72.3727 361.157 72.3304 361.039 72.2931C361.646 71.4908 362.146 70.8279 362.539 70.3043C362.931 69.7807 363.248 69.353 363.489 69.0211C363.764 68.6419 363.979 68.3388 364.131 68.1119C364.374 67.7449 364.657 67.305 364.982 66.7922C365.262 66.3562 365.597 65.8208 365.986 65.1859C366.38 64.5431 366.833 63.8037 367.344 62.9678Z" fill="white" fill-opacity="0.36"/>
<path d="M385.15 77.248L385.967 77.9832C386.018 78.0289 386.072 78.0848 386.131 78.1509C386.183 78.2104 386.241 78.2765 386.308 78.3491C386.387 78.421 386.464 78.5034 386.538 78.5963C385.96 79.166 385.457 79.666 385.03 80.0963C384.61 80.5332 384.26 80.9008 383.978 81.1991C383.65 81.5481 383.379 81.8493 383.164 82.1026C382.929 82.3639 382.633 82.7147 382.276 83.1553C381.963 83.5312 381.564 84.0189 381.077 84.6184C380.589 85.2178 379.999 85.9541 379.305 86.8272C379.247 86.7749 379.182 86.723 379.11 86.6714C379.044 86.6126 378.979 86.5607 378.915 86.5157C378.836 86.4576 378.767 86.4024 378.709 86.3501C378.644 86.2913 378.565 86.2332 378.472 86.1759C378.393 86.1316 378.308 86.0807 378.215 86.0234C378.122 85.966 378.019 85.9126 377.906 85.8633C378.593 85.1288 379.16 84.5218 379.605 84.0421C380.05 83.5624 380.409 83.1701 380.684 82.8653C380.998 82.5169 381.242 82.2379 381.418 82.0282C381.697 81.6885 382.025 81.2807 382.401 80.8046C382.726 80.4003 383.115 79.9028 383.568 79.3121C384.027 78.714 384.555 78.026 385.15 77.248Z" fill="white" fill-opacity="0.36"/>
<path d="M401.367 93.3115L402.102 94.128C402.148 94.1788 402.197 94.2401 402.248 94.3119C402.293 94.3765 402.345 94.4484 402.403 94.5275C402.475 94.6073 402.543 94.6973 402.607 94.7975C401.972 95.3035 401.419 95.7483 400.95 96.1316C400.487 96.5222 400.1 96.8512 399.788 97.1183C399.426 97.4313 399.125 97.7025 398.885 97.9319C398.623 98.1671 398.292 98.4851 397.891 98.8859C397.541 99.2271 397.092 99.6704 396.545 100.216C395.998 100.761 395.334 101.431 394.552 102.227C394.5 102.169 394.441 102.111 394.375 102.052C394.316 101.987 394.257 101.928 394.197 101.877C394.125 101.811 394.062 101.749 394.01 101.691C393.951 101.625 393.878 101.559 393.792 101.492C393.719 101.44 393.639 101.381 393.552 101.314C393.466 101.247 393.369 101.183 393.262 101.122C394.022 100.464 394.649 99.9192 395.142 99.4886C395.634 99.0581 396.033 98.7056 396.338 98.4311C396.686 98.1175 396.959 97.8655 397.156 97.6753C397.469 97.3667 397.838 96.9954 398.262 96.5612C398.627 96.1931 399.065 95.739 399.578 95.1988C400.097 94.6521 400.694 94.023 401.367 93.3115Z" fill="white" fill-opacity="0.36"/>
<path d="M415.818 110.984L416.464 111.873C416.504 111.928 416.546 111.995 416.59 112.071C416.628 112.14 416.672 112.217 416.721 112.302C416.784 112.389 416.843 112.485 416.896 112.592C416.211 113.029 415.615 113.413 415.108 113.745C414.607 114.085 414.188 114.372 413.85 114.605C413.457 114.879 413.129 115.117 412.866 115.32C412.582 115.527 412.219 115.808 411.778 116.165C411.395 116.468 410.902 116.862 410.301 117.347C409.7 117.832 408.969 118.429 408.109 119.139C408.063 119.076 408.01 119.011 407.95 118.946C407.899 118.875 407.846 118.81 407.792 118.753C407.727 118.68 407.671 118.612 407.625 118.548C407.574 118.477 407.508 118.404 407.43 118.329C407.362 118.269 407.289 118.201 407.21 118.126C407.131 118.051 407.041 117.977 406.941 117.905C407.766 117.33 408.446 116.854 408.981 116.477C409.516 116.1 409.95 115.791 410.282 115.55C410.661 115.275 410.958 115.053 411.174 114.884C411.518 114.61 411.923 114.279 412.39 113.892C412.792 113.564 413.275 113.158 413.841 112.674C414.415 112.185 415.074 111.622 415.818 110.984Z" fill="white" fill-opacity="0.36"/>
<path d="M428.342 130.068L428.891 131.02C428.925 131.079 428.96 131.149 428.996 131.23C429.026 131.303 429.062 131.384 429.102 131.473C429.156 131.566 429.203 131.668 429.245 131.78C428.519 132.143 427.886 132.463 427.347 132.74C426.813 133.026 426.366 133.267 426.006 133.464C425.587 133.695 425.236 133.897 424.953 134.072C424.648 134.247 424.258 134.49 423.782 134.798C423.369 135.059 422.838 135.4 422.19 135.819C421.541 136.239 420.752 136.756 419.822 137.372C419.783 137.305 419.737 137.235 419.685 137.164C419.641 137.088 419.595 137.018 419.548 136.956C419.49 136.876 419.442 136.802 419.403 136.735C419.359 136.658 419.302 136.579 419.231 136.495C419.17 136.429 419.105 136.354 419.034 136.271C418.963 136.188 418.882 136.105 418.789 136.023C419.67 135.537 420.396 135.135 420.968 134.816C421.54 134.497 422.003 134.236 422.358 134.03C422.764 133.796 423.083 133.606 423.315 133.461C423.686 133.225 424.124 132.938 424.628 132.601C425.062 132.317 425.585 131.964 426.199 131.542C426.821 131.116 427.535 130.624 428.342 130.068Z" fill="white" fill-opacity="0.36"/>
<path d="M438.803 150.358L439.25 151.362C439.277 151.424 439.305 151.498 439.332 151.582C439.354 151.657 439.381 151.742 439.412 151.835C439.456 151.933 439.493 152.04 439.522 152.155C438.762 152.44 438.099 152.692 437.534 152.911C436.973 153.14 436.503 153.333 436.125 153.491C435.684 153.677 435.313 153.842 435.014 153.985C434.693 154.128 434.279 154.329 433.774 154.586C433.336 154.802 432.772 155.085 432.083 155.435C431.395 155.784 430.555 156.216 429.566 156.732C429.534 156.66 429.496 156.586 429.452 156.51C429.416 156.43 429.378 156.356 429.337 156.289C429.288 156.203 429.248 156.125 429.216 156.054C429.18 155.973 429.132 155.888 429.07 155.798C429.017 155.726 428.959 155.644 428.898 155.554C428.836 155.464 428.764 155.373 428.68 155.282C429.607 154.891 430.371 154.567 430.973 154.309C431.575 154.052 432.063 153.84 432.438 153.673C432.866 153.483 433.203 153.327 433.449 153.207C433.842 153.011 434.308 152.771 434.845 152.489C435.306 152.252 435.863 151.956 436.518 151.6C437.181 151.241 437.942 150.827 438.803 150.358Z" fill="white" fill-opacity="0.36"/>
<path d="M447.082 171.629L447.422 172.674C447.443 172.739 447.462 172.815 447.48 172.901C447.495 172.979 447.513 173.065 447.534 173.161C447.567 173.263 447.592 173.373 447.61 173.49C446.824 173.695 446.138 173.876 445.554 174.035C444.972 174.204 444.484 174.347 444.091 174.464C443.633 174.603 443.248 174.728 442.935 174.84C442.6 174.949 442.168 175.104 441.639 175.307C441.181 175.477 440.591 175.699 439.869 175.975C439.147 176.25 438.268 176.593 437.23 177.002C437.206 176.927 437.175 176.85 437.139 176.769C437.112 176.686 437.082 176.608 437.048 176.537C437.009 176.447 436.977 176.365 436.953 176.291C436.926 176.207 436.886 176.117 436.834 176.021C436.789 175.944 436.74 175.857 436.688 175.761C436.636 175.665 436.574 175.567 436.5 175.468C437.463 175.175 438.257 174.933 438.882 174.74C439.508 174.547 440.015 174.387 440.405 174.26C440.851 174.116 441.203 173.996 441.46 173.902C441.872 173.748 442.359 173.559 442.923 173.334C443.406 173.147 443.992 172.91 444.68 172.625C445.377 172.337 446.177 172.005 447.082 171.629Z" fill="white" fill-opacity="0.36"/>
<path d="M453.093 193.65L453.321 194.725C453.335 194.791 453.347 194.869 453.356 194.957C453.362 195.035 453.371 195.123 453.382 195.221C453.404 195.326 453.418 195.438 453.423 195.556C452.62 195.677 451.919 195.786 451.321 195.883C450.725 195.99 450.225 196.081 449.822 196.157C449.352 196.247 448.955 196.331 448.633 196.41C448.289 196.483 447.843 196.593 447.295 196.739C446.821 196.86 446.211 197.02 445.465 197.218C444.718 197.417 443.808 197.665 442.733 197.964C442.717 197.887 442.695 197.807 442.667 197.723C442.649 197.637 442.627 197.557 442.601 197.482C442.571 197.389 442.548 197.304 442.532 197.228C442.513 197.142 442.483 197.048 442.442 196.947C442.405 196.865 442.365 196.774 442.324 196.673C442.282 196.572 442.23 196.468 442.168 196.361C443.156 196.171 443.971 196.013 444.613 195.887C445.255 195.76 445.776 195.654 446.178 195.569C446.636 195.472 446.998 195.39 447.263 195.323C447.689 195.213 448.194 195.075 448.778 194.911C449.279 194.775 449.885 194.601 450.599 194.39C451.323 194.176 452.154 193.929 453.093 193.65Z" fill="white" fill-opacity="0.36"/>
<path d="M456.773 216.178L456.888 217.27C456.895 217.338 456.899 217.417 456.898 217.505C456.897 217.584 456.896 217.672 456.897 217.77C456.908 217.877 456.91 217.99 456.903 218.108C456.092 218.145 455.383 218.18 454.778 218.214C454.174 218.258 453.667 218.296 453.258 218.329C452.781 218.37 452.378 218.412 452.049 218.456C451.7 218.493 451.245 218.556 450.684 218.644C450.201 218.715 449.577 218.81 448.814 218.929C448.051 219.049 447.12 219.2 446.019 219.385C446.011 219.307 445.998 219.225 445.979 219.139C445.97 219.051 445.956 218.969 445.938 218.893C445.918 218.796 445.904 218.71 445.896 218.632C445.887 218.544 445.867 218.448 445.836 218.344C445.808 218.258 445.778 218.163 445.748 218.058C445.717 217.954 445.676 217.845 445.625 217.732C446.627 217.647 447.454 217.575 448.106 217.516C448.758 217.457 449.288 217.406 449.696 217.364C450.162 217.315 450.53 217.271 450.801 217.233C451.236 217.167 451.753 217.083 452.351 216.981C452.862 216.898 453.484 216.789 454.216 216.653C454.958 216.516 455.81 216.358 456.773 216.178Z" fill="white" fill-opacity="0.36"/>
<path d="M458.074 238.967V240.066C458.074 240.134 458.069 240.212 458.06 240.3C458.05 240.378 458.04 240.466 458.03 240.564C458.03 240.671 458.021 240.784 458.001 240.901C457.19 240.852 456.482 240.813 455.877 240.784C455.271 240.764 454.764 240.75 454.354 240.74C453.875 240.73 453.47 240.73 453.138 240.74C452.786 240.74 452.327 240.754 451.761 240.784C451.272 240.803 450.643 240.833 449.871 240.872C449.1 240.911 448.157 240.964 447.044 241.033C447.044 240.955 447.039 240.872 447.029 240.784C447.029 240.696 447.024 240.613 447.015 240.535C447.005 240.437 447 240.349 447 240.271C447 240.183 446.99 240.085 446.971 239.978C446.951 239.89 446.932 239.792 446.912 239.685C446.893 239.578 446.863 239.465 446.824 239.348C447.83 239.368 448.66 239.382 449.314 239.392C449.969 239.402 450.501 239.407 450.911 239.407C451.38 239.407 451.751 239.402 452.024 239.392C452.464 239.373 452.986 239.343 453.592 239.304C454.109 239.275 454.739 239.231 455.481 239.172C456.233 239.114 457.098 239.045 458.074 238.967Z" fill="white" fill-opacity="0.36"/>
<path d="M456.986 261.768L456.871 262.86C456.864 262.928 456.851 263.005 456.832 263.092C456.815 263.168 456.796 263.255 456.776 263.351C456.764 263.458 456.743 263.568 456.711 263.683C455.91 263.55 455.21 263.437 454.611 263.344C454.011 263.262 453.508 263.194 453.101 263.141C452.626 263.082 452.223 263.039 451.892 263.014C451.542 262.978 451.084 262.944 450.518 262.914C450.03 262.882 449.4 262.846 448.629 262.804C447.858 262.762 446.915 262.717 445.801 262.669C445.809 262.591 445.813 262.508 445.812 262.42C445.821 262.332 445.825 262.249 445.824 262.17C445.824 262.072 445.828 261.984 445.837 261.907C445.846 261.819 445.846 261.721 445.838 261.612C445.828 261.523 445.819 261.424 445.81 261.315C445.802 261.206 445.785 261.091 445.758 260.97C446.756 261.095 447.58 261.196 448.23 261.274C448.88 261.353 449.409 261.413 449.817 261.456C450.283 261.505 450.652 261.539 450.925 261.558C451.364 261.584 451.887 261.61 452.493 261.634C453.011 261.659 453.642 261.681 454.386 261.701C455.14 261.721 456.007 261.743 456.986 261.768Z" fill="white" fill-opacity="0.36"/>
<path d="M453.527 284.33L453.299 285.405C453.285 285.472 453.264 285.547 453.236 285.631C453.21 285.705 453.182 285.789 453.152 285.883C453.13 285.988 453.097 286.096 453.054 286.206C452.271 285.99 451.587 285.804 451 285.65C450.412 285.505 449.919 285.385 449.519 285.29C449.053 285.181 448.657 285.097 448.33 285.037C447.986 284.964 447.534 284.883 446.974 284.794C446.493 284.712 445.87 284.609 445.108 284.487C444.345 284.365 443.412 284.222 442.309 284.057C442.325 283.981 442.337 283.898 442.346 283.81C442.364 283.724 442.377 283.642 442.384 283.564C442.394 283.466 442.408 283.379 442.424 283.303C442.442 283.217 442.453 283.119 442.456 283.01C442.456 282.92 442.457 282.821 442.46 282.711C442.463 282.602 442.458 282.486 442.444 282.364C443.424 282.592 444.233 282.779 444.871 282.924C445.509 283.07 446.028 283.185 446.429 283.271C446.888 283.368 447.252 283.44 447.521 283.488C447.955 283.56 448.473 283.64 449.073 283.728C449.585 283.807 450.21 283.895 450.949 283.992C451.696 284.091 452.556 284.203 453.527 284.33Z" fill="white" fill-opacity="0.36"/>
<path d="M447.719 306.407L447.379 307.452C447.358 307.517 447.329 307.589 447.293 307.67C447.259 307.741 447.223 307.822 447.184 307.912C447.15 308.014 447.106 308.118 447.052 308.223C446.296 307.926 445.635 307.67 445.068 307.455C444.498 307.25 444.019 307.079 443.632 306.943C443.18 306.786 442.795 306.66 442.476 306.567C442.142 306.458 441.701 306.33 441.153 306.183C440.683 306.051 440.074 305.884 439.329 305.683C438.583 305.482 437.67 305.242 436.59 304.963C436.614 304.888 436.635 304.808 436.653 304.721C436.68 304.638 436.701 304.557 436.716 304.48C436.737 304.384 436.76 304.299 436.784 304.225C436.811 304.141 436.832 304.045 436.846 303.937C436.855 303.847 436.867 303.748 436.881 303.64C436.896 303.532 436.903 303.416 436.902 303.293C437.852 303.622 438.637 303.892 439.256 304.104C439.876 304.315 440.38 304.484 440.77 304.611C441.216 304.756 441.571 304.866 441.834 304.941C442.258 305.058 442.764 305.192 443.352 305.342C443.853 305.474 444.466 305.627 445.19 305.801C445.923 305.977 446.766 306.179 447.719 306.407Z" fill="white" fill-opacity="0.36"/>
<path d="M439.644 327.754L439.197 328.758C439.169 328.82 439.133 328.89 439.088 328.966C439.047 329.034 439.003 329.11 438.954 329.195C438.91 329.293 438.856 329.392 438.79 329.491C438.07 329.117 437.439 328.793 436.897 328.52C436.352 328.256 435.894 328.036 435.524 327.86C435.09 327.657 434.72 327.492 434.413 327.366C434.092 327.223 433.666 327.049 433.137 326.846C432.683 326.665 432.096 326.436 431.375 326.158C430.654 325.879 429.772 325.545 428.727 325.155C428.759 325.083 428.788 325.006 428.815 324.921C428.85 324.841 428.88 324.763 428.903 324.688C428.933 324.595 428.965 324.512 428.997 324.441C429.032 324.361 429.063 324.268 429.089 324.162C429.107 324.073 429.129 323.976 429.155 323.87C429.18 323.764 429.199 323.649 429.211 323.527C430.122 323.954 430.875 324.305 431.468 324.58C432.062 324.855 432.546 325.076 432.921 325.242C433.349 325.433 433.69 325.579 433.944 325.682C434.353 325.843 434.843 326.028 435.412 326.239C435.896 326.423 436.49 326.639 437.192 326.887C437.902 327.139 438.72 327.429 439.644 327.754Z" fill="white" fill-opacity="0.36"/>
<path d="M429.374 348.143L428.825 349.094C428.791 349.153 428.747 349.218 428.695 349.29C428.647 349.352 428.595 349.424 428.538 349.503C428.484 349.596 428.419 349.689 428.344 349.78C427.666 349.333 427.073 348.945 426.563 348.617C426.048 348.297 425.616 348.031 425.266 347.817C424.856 347.57 424.505 347.367 424.213 347.209C423.908 347.034 423.503 346.817 422.998 346.559C422.566 346.332 422.005 346.042 421.318 345.69C420.63 345.338 419.787 344.914 418.789 344.416C418.828 344.348 418.865 344.274 418.901 344.193C418.945 344.117 418.982 344.043 419.012 343.97C419.053 343.881 419.093 343.802 419.132 343.735C419.176 343.658 419.216 343.569 419.253 343.466C419.28 343.38 419.312 343.286 419.348 343.183C419.385 343.08 419.416 342.968 419.441 342.847C420.302 343.367 421.014 343.795 421.575 344.131C422.137 344.466 422.596 344.737 422.951 344.942C423.357 345.176 423.681 345.357 423.922 345.486C424.313 345.688 424.78 345.924 425.324 346.193C425.787 346.427 426.354 346.703 427.026 347.024C427.707 347.349 428.489 347.722 429.374 348.143Z" fill="white" fill-opacity="0.36"/>
<path d="M417.033 367.346L416.387 368.235C416.347 368.29 416.297 368.351 416.238 368.416C416.184 368.473 416.124 368.539 416.059 368.612C415.996 368.699 415.922 368.784 415.837 368.867C415.21 368.352 414.661 367.904 414.188 367.524C413.71 367.152 413.307 366.842 412.981 366.593C412.6 366.304 412.272 366.066 411.998 365.879C411.713 365.672 411.333 365.414 410.858 365.105C410.451 364.834 409.925 364.487 409.277 364.065C408.63 363.643 407.836 363.133 406.895 362.534C406.941 362.471 406.986 362.4 407.03 362.324C407.082 362.253 407.127 362.183 407.165 362.114C407.214 362.029 407.262 361.955 407.308 361.892C407.359 361.821 407.409 361.736 407.456 361.637C407.492 361.555 407.534 361.464 407.581 361.366C407.628 361.268 407.671 361.159 407.708 361.042C408.51 361.649 409.173 362.149 409.697 362.541C410.22 362.933 410.648 363.25 410.98 363.491C411.359 363.767 411.662 363.981 411.889 364.134C412.256 364.376 412.696 364.66 413.209 364.984C413.645 365.265 414.18 365.599 414.815 365.988C415.458 366.383 416.197 366.835 417.033 367.346Z" fill="white" fill-opacity="0.36"/>
<path d="M402.751 385.153L402.016 385.969C401.97 386.02 401.914 386.075 401.848 386.134C401.789 386.185 401.723 386.244 401.65 386.31C401.578 386.39 401.496 386.467 401.403 386.541C400.833 385.962 400.333 385.459 399.903 385.032C399.466 384.613 399.098 384.262 398.8 383.98C398.451 383.653 398.15 383.382 397.896 383.167C397.635 382.932 397.284 382.635 396.844 382.278C396.468 381.966 395.98 381.566 395.381 381.079C394.781 380.592 394.045 380.001 393.172 379.307C393.224 379.249 393.276 379.184 393.328 379.112C393.386 379.047 393.438 378.982 393.483 378.917C393.541 378.838 393.597 378.77 393.649 378.712C393.708 378.646 393.766 378.567 393.823 378.474C393.867 378.396 393.918 378.31 393.976 378.217C394.033 378.124 394.086 378.021 394.136 377.908C394.87 378.596 395.477 379.162 395.957 379.607C396.437 380.052 396.829 380.412 397.134 380.686C397.482 381 397.761 381.245 397.971 381.42C398.311 381.7 398.718 382.028 399.194 382.404C399.599 382.728 400.096 383.117 400.687 383.57C401.285 384.03 401.973 384.557 402.751 385.153Z" fill="white" fill-opacity="0.36"/>
<path d="M386.689 401.37L385.872 402.105C385.821 402.151 385.76 402.2 385.688 402.251C385.623 402.296 385.552 402.348 385.473 402.406C385.393 402.478 385.303 402.546 385.203 402.61C384.696 401.974 384.252 401.422 383.868 400.953C383.478 400.49 383.149 400.102 382.882 399.791C382.569 399.429 382.298 399.128 382.068 398.888C381.833 398.626 381.515 398.295 381.114 397.894C380.773 397.544 380.33 397.095 379.784 396.548C379.239 396.001 378.569 395.337 377.773 394.555C377.831 394.503 377.889 394.444 377.948 394.378C378.013 394.319 378.072 394.26 378.123 394.2C378.189 394.127 378.251 394.065 378.31 394.013C378.375 393.954 378.441 393.881 378.508 393.795C378.56 393.722 378.619 393.642 378.686 393.555C378.753 393.469 378.817 393.372 378.878 393.265C379.536 394.025 380.081 394.652 380.511 395.145C380.942 395.637 381.294 396.036 381.569 396.341C381.883 396.689 382.134 396.962 382.325 397.158C382.633 397.472 383.005 397.841 383.439 398.264C383.807 398.63 384.261 399.068 384.801 399.581C385.348 400.1 385.977 400.697 386.689 401.37Z" fill="white" fill-opacity="0.36"/>
<path d="M369.014 415.818L368.125 416.464C368.07 416.504 368.003 416.546 367.927 416.59C367.858 416.628 367.781 416.672 367.696 416.721C367.609 416.784 367.513 416.843 367.406 416.896C366.969 416.211 366.585 415.615 366.253 415.108C365.913 414.607 365.626 414.188 365.393 413.85C365.119 413.457 364.881 413.129 364.678 412.866C364.471 412.582 364.19 412.219 363.833 411.778C363.53 411.395 363.136 410.902 362.651 410.301C362.166 409.7 361.569 408.969 360.859 408.109C360.922 408.063 360.987 408.01 361.052 407.95C361.123 407.899 361.187 407.846 361.245 407.792C361.318 407.727 361.386 407.671 361.45 407.625C361.521 407.574 361.594 407.508 361.669 407.43C361.729 407.362 361.797 407.289 361.872 407.21C361.947 407.131 362.021 407.041 362.093 406.941C362.668 407.766 363.144 408.446 363.521 408.981C363.898 409.516 364.207 409.95 364.448 410.282C364.723 410.661 364.945 410.958 365.114 411.174C365.388 411.518 365.719 411.923 366.106 412.39C366.434 412.792 366.84 413.275 367.324 413.841C367.813 414.415 368.376 415.074 369.014 415.818Z" fill="white" fill-opacity="0.36"/>
<path d="M349.929 428.341L348.977 428.891C348.918 428.925 348.848 428.96 348.767 428.995C348.694 429.026 348.613 429.061 348.524 429.102C348.431 429.155 348.329 429.203 348.218 429.245C347.855 428.518 347.534 427.886 347.257 427.347C346.971 426.813 346.73 426.365 346.533 426.005C346.303 425.586 346.1 425.235 345.925 424.952C345.75 424.648 345.507 424.258 345.199 423.782C344.938 423.369 344.598 422.838 344.178 422.189C343.758 421.541 343.241 420.751 342.625 419.822C342.692 419.782 342.762 419.737 342.833 419.684C342.909 419.64 342.979 419.595 343.042 419.547C343.121 419.49 343.195 419.442 343.263 419.403C343.339 419.359 343.418 419.301 343.502 419.231C343.568 419.17 343.643 419.104 343.726 419.034C343.809 418.963 343.892 418.881 343.974 418.789C344.46 419.67 344.862 420.396 345.181 420.968C345.5 421.539 345.761 422.002 345.967 422.358C346.201 422.764 346.391 423.083 346.536 423.314C346.773 423.685 347.059 424.123 347.396 424.628C347.68 425.061 348.033 425.585 348.455 426.198C348.881 426.82 349.373 427.535 349.929 428.341Z" fill="white" fill-opacity="0.36"/>
<path d="M131.856 429.374L130.905 428.824C130.846 428.79 130.781 428.747 130.709 428.694C130.647 428.647 130.575 428.594 130.496 428.537C130.403 428.483 130.31 428.419 130.219 428.343C130.666 427.666 131.054 427.072 131.382 426.562C131.702 426.048 131.968 425.615 132.182 425.265C132.43 424.856 132.632 424.505 132.79 424.212C132.966 423.908 133.182 423.503 133.44 422.998C133.667 422.565 133.957 422.005 134.309 421.317C134.661 420.63 135.085 419.787 135.583 418.788C135.651 418.827 135.725 418.865 135.806 418.9C135.882 418.944 135.956 418.981 136.029 419.012C136.118 419.052 136.197 419.092 136.265 419.131C136.341 419.175 136.43 419.215 136.533 419.252C136.619 419.279 136.713 419.311 136.816 419.348C136.919 419.385 137.031 419.416 137.152 419.44C136.632 420.302 136.204 421.013 135.868 421.575C135.533 422.137 135.263 422.595 135.057 422.95C134.823 423.356 134.642 423.68 134.513 423.922C134.311 424.312 134.075 424.779 133.806 425.323C133.572 425.786 133.296 426.354 132.975 427.026C132.65 427.706 132.277 428.489 131.856 429.374Z" fill="white" fill-opacity="0.36"/>
<path d="M112.654 417.033L111.765 416.387C111.71 416.347 111.65 416.297 111.584 416.238C111.527 416.184 111.462 416.124 111.388 416.059C111.301 415.996 111.216 415.922 111.133 415.837C111.649 415.21 112.097 414.661 112.476 414.188C112.848 413.71 113.158 413.307 113.407 412.981C113.696 412.6 113.935 412.272 114.122 411.998C114.328 411.713 114.586 411.333 114.896 410.858C115.167 410.451 115.513 409.925 115.935 409.277C116.357 408.63 116.868 407.836 117.467 406.895C117.53 406.941 117.6 406.986 117.677 407.03C117.748 407.082 117.818 407.127 117.887 407.165C117.972 407.214 118.045 407.262 118.109 407.308C118.18 407.359 118.265 407.409 118.363 407.456C118.446 407.492 118.536 407.534 118.634 407.581C118.733 407.628 118.841 407.671 118.959 407.708C118.352 408.51 117.852 409.173 117.459 409.697C117.067 410.22 116.75 410.648 116.509 410.98C116.233 411.359 116.019 411.662 115.866 411.889C115.624 412.256 115.341 412.696 115.016 413.209C114.736 413.645 114.401 414.18 114.012 414.815C113.618 415.458 113.165 416.197 112.654 417.033Z" fill="white" fill-opacity="0.36"/>
<path d="M94.8489 402.751L94.0324 402.016C93.9816 401.971 93.9268 401.915 93.868 401.849C93.8165 401.789 93.7577 401.723 93.6917 401.65C93.6119 401.579 93.5349 401.496 93.4609 401.403C94.0396 400.834 94.5424 400.334 94.9693 399.903C95.3889 399.466 95.7396 399.099 96.0213 398.8C96.3487 398.451 96.6199 398.15 96.8348 397.897C97.0701 397.636 97.3663 397.285 97.7235 396.844C98.0358 396.468 98.4355 395.981 98.9227 395.381C99.4098 394.782 100.001 394.045 100.695 393.172C100.753 393.225 100.818 393.277 100.89 393.328C100.955 393.387 101.02 393.439 101.084 393.484C101.164 393.542 101.232 393.597 101.29 393.649C101.355 393.708 101.435 393.766 101.527 393.824C101.606 393.868 101.692 393.919 101.784 393.976C101.877 394.033 101.98 394.087 102.094 394.136C101.406 394.871 100.84 395.478 100.395 395.957C99.9495 396.437 99.5898 396.829 99.3153 397.134C99.0017 397.483 98.757 397.762 98.5813 397.971C98.3017 398.311 97.9739 398.719 97.5978 399.195C97.2733 399.599 96.8844 400.097 96.4314 400.687C95.9717 401.285 95.4442 401.973 94.8489 402.751Z" fill="white" fill-opacity="0.36"/>
<path d="M78.6339 386.688L77.8988 385.872C77.853 385.821 77.8044 385.759 77.7528 385.688C77.7078 385.623 77.6563 385.551 77.5982 385.472C77.5263 385.392 77.4584 385.302 77.3945 385.202C78.0295 384.696 78.5818 384.251 79.0514 383.868C79.5144 383.477 79.9016 383.148 80.2129 382.881C80.5751 382.568 80.8762 382.297 81.1165 382.068C81.3777 381.832 81.709 381.514 82.1103 381.114C82.4601 380.772 82.9086 380.329 83.4558 379.784C84.003 379.239 84.6674 378.568 85.449 377.772C85.5012 377.83 85.5604 377.889 85.6265 377.948C85.6853 378.013 85.7445 378.071 85.804 378.123C85.8766 378.189 85.939 378.251 85.9913 378.309C86.0501 378.374 86.1227 378.44 86.2091 378.507C86.2824 378.559 86.3623 378.619 86.4487 378.686C86.5351 378.752 86.632 378.816 86.7394 378.877C85.9789 379.536 85.3522 380.08 84.8594 380.511C84.3667 380.941 83.9679 381.294 83.6631 381.568C83.3147 381.882 83.0422 382.134 82.8455 382.324C82.532 382.633 82.1634 383.004 81.7396 383.438C81.3745 383.806 80.9358 384.261 80.4235 384.801C79.9039 385.347 79.3074 385.976 78.6339 386.688Z" fill="white" fill-opacity="0.36"/>
<path d="M64.1827 369.016L63.537 368.127C63.4968 368.072 63.4548 368.005 63.4111 367.929C63.373 367.86 63.3293 367.783 63.2798 367.698C63.2166 367.611 63.1585 367.515 63.1055 367.408C63.7899 366.971 64.3857 366.587 64.8927 366.255C65.394 365.915 65.8135 365.628 66.151 365.395C66.5439 365.121 66.8718 364.883 67.1346 364.68C67.4191 364.473 67.7818 364.192 68.2228 363.835C68.6063 363.532 69.0987 363.138 69.6999 362.653C70.3011 362.168 71.0319 361.571 71.8924 360.861C71.9383 360.924 71.9911 360.989 72.0506 361.054C72.1023 361.125 72.155 361.189 72.2088 361.247C72.2741 361.32 72.3297 361.388 72.3757 361.452C72.4273 361.523 72.4926 361.596 72.5716 361.671C72.639 361.731 72.7122 361.799 72.7912 361.874C72.8701 361.949 72.9598 362.023 73.0603 362.095C72.2351 362.67 71.5549 363.146 71.0198 363.523C70.4848 363.9 70.0513 364.209 69.7195 364.45C69.3403 364.725 69.0429 364.947 68.8274 365.116C68.4834 365.39 68.0779 365.721 67.6111 366.108C67.2096 366.436 66.7258 366.842 66.1598 367.326C65.5859 367.815 64.9269 368.378 64.1827 369.016Z" fill="white" fill-opacity="0.36"/>
<path d="M51.6573 349.932L51.108 348.98C51.0738 348.921 51.039 348.851 51.0035 348.77C50.9729 348.697 50.9374 348.616 50.897 348.527C50.8433 348.434 50.7956 348.332 50.7539 348.22C51.4803 347.857 52.113 347.537 52.652 347.26C53.1861 346.974 53.6332 346.733 53.9933 346.536C54.4126 346.305 54.7636 346.103 55.0462 345.928C55.3507 345.753 55.7409 345.51 56.2167 345.202C56.6298 344.941 57.1607 344.6 57.8093 344.181C58.4579 343.761 59.2471 343.244 60.1771 342.628C60.2161 342.695 60.2619 342.765 60.3143 342.836C60.3582 342.912 60.404 342.982 60.4515 343.044C60.5088 343.124 60.5569 343.198 60.596 343.265C60.6399 343.342 60.6972 343.421 60.7679 343.505C60.8287 343.571 60.8945 343.646 60.9651 343.729C61.0357 343.812 61.1172 343.895 61.2097 343.977C60.3288 344.463 59.6026 344.865 59.0311 345.184C58.4596 345.503 57.9962 345.764 57.641 345.97C57.235 346.204 56.9161 346.394 56.6842 346.539C56.3134 346.775 55.8756 347.062 55.3707 347.399C54.9371 347.683 54.4136 348.036 53.8002 348.458C53.1783 348.884 52.464 349.376 51.6573 349.932Z" fill="white" fill-opacity="0.36"/>
<path d="M41.2 329.642L40.7532 328.638C40.7254 328.576 40.698 328.502 40.6712 328.418C40.6484 328.343 40.6215 328.258 40.5907 328.165C40.547 328.067 40.5103 327.96 40.4805 327.845C41.2408 327.56 41.9035 327.308 42.4685 327.089C43.0296 326.86 43.4995 326.667 43.8781 326.509C44.3192 326.323 44.6895 326.158 44.9888 326.015C45.31 325.872 45.7233 325.671 46.2289 325.414C46.667 325.198 47.2305 324.915 47.9194 324.565C48.6083 324.216 49.4474 323.784 50.4366 323.268C50.4684 323.34 50.5066 323.414 50.5513 323.49C50.587 323.57 50.6252 323.644 50.6659 323.711C50.7146 323.797 50.7548 323.875 50.7866 323.946C50.8223 324.027 50.8709 324.112 50.9325 324.202C50.9861 324.274 51.0436 324.356 51.1052 324.446C51.1667 324.536 51.2391 324.627 51.3225 324.718C50.3957 325.109 49.6314 325.433 49.0297 325.691C48.428 325.948 47.9398 326.16 47.5651 326.327C47.1369 326.517 46.7998 326.673 46.554 326.793C46.1605 326.989 45.6951 327.229 45.1579 327.511C44.697 327.748 44.1394 328.044 43.4852 328.4C42.8221 328.759 42.0604 329.173 41.2 329.642Z" fill="white" fill-opacity="0.36"/>
<path d="M32.9185 308.371L32.579 307.326C32.5578 307.261 32.5384 307.185 32.5205 307.099C32.5056 307.021 32.4878 306.935 32.4669 306.839C32.4337 306.737 32.4083 306.627 32.3906 306.51C33.1766 306.305 33.862 306.124 34.4469 305.965C35.0288 305.796 35.5162 305.653 35.9093 305.536C36.3675 305.397 36.7529 305.272 37.0657 305.16C37.4 305.051 37.832 304.896 38.3616 304.693C38.82 304.523 39.41 304.301 40.1316 304.025C40.8533 303.75 41.733 303.407 42.7706 302.998C42.7948 303.073 42.8251 303.15 42.8615 303.231C42.8887 303.314 42.919 303.392 42.9524 303.463C42.9919 303.553 43.0237 303.635 43.0478 303.709C43.075 303.793 43.1144 303.883 43.1662 303.979C43.2119 304.056 43.2607 304.143 43.3125 304.239C43.3642 304.335 43.4268 304.433 43.5002 304.532C42.5375 304.825 41.7435 305.067 41.1182 305.26C40.4929 305.453 39.9853 305.613 39.5952 305.74C39.1494 305.884 38.7979 306.004 38.5409 306.098C38.129 306.252 37.6412 306.441 37.0774 306.666C36.5942 306.853 36.0087 307.09 35.321 307.375C34.6239 307.663 33.8231 307.995 32.9185 308.371Z" fill="white" fill-opacity="0.36"/>
<path d="M26.9046 286.35L26.6762 285.275C26.662 285.209 26.6505 285.131 26.6418 285.043C26.6351 284.965 26.6264 284.877 26.6156 284.779C26.5933 284.674 26.5795 284.562 26.5742 284.444C27.3772 284.323 28.0779 284.214 28.6762 284.117C29.2725 284.01 29.7722 283.919 30.1754 283.843C30.6455 283.753 31.0419 283.669 31.3647 283.59C31.7086 283.517 32.1545 283.407 32.7024 283.261C33.176 283.14 33.786 282.98 34.5325 282.782C35.279 282.583 36.1896 282.335 37.2644 282.036C37.2806 282.113 37.3026 282.193 37.3305 282.277C37.3487 282.363 37.3708 282.443 37.3966 282.518C37.4264 282.611 37.4495 282.696 37.4657 282.772C37.484 282.858 37.5138 282.952 37.5553 283.053C37.5927 283.135 37.6321 283.226 37.6735 283.327C37.7149 283.428 37.767 283.532 37.8295 283.639C36.8416 283.829 36.0266 283.987 35.3846 284.113C34.7425 284.24 34.2209 284.346 33.8197 284.431C33.3612 284.528 32.9993 284.61 32.7338 284.677C32.308 284.787 31.8031 284.925 31.219 285.089C30.7188 285.225 30.1118 285.399 29.3981 285.61C28.6747 285.824 27.8436 286.071 26.9046 286.35Z" fill="white" fill-opacity="0.36"/>
<path d="M23.2272 263.822L23.1124 262.73C23.1052 262.662 23.1019 262.583 23.1025 262.495C23.104 262.416 23.1045 262.328 23.104 262.23C23.0928 262.123 23.0908 262.01 23.0979 261.892C23.9092 261.855 24.6174 261.82 25.2226 261.786C25.8268 261.742 26.3333 261.704 26.7423 261.671C27.2192 261.63 27.6222 261.588 27.9514 261.544C28.3011 261.507 28.756 261.444 29.3162 261.356C29.7998 261.285 30.4232 261.19 31.1864 261.071C31.9495 260.951 32.8811 260.8 33.9812 260.615C33.9893 260.693 34.0029 260.775 34.0218 260.861C34.031 260.949 34.0445 261.031 34.0624 261.107C34.0823 261.204 34.0963 261.29 34.1045 261.368C34.1137 261.456 34.1336 261.552 34.1643 261.656C34.1929 261.742 34.2225 261.837 34.2532 261.942C34.2838 262.046 34.3247 262.155 34.3758 262.268C33.3734 262.353 32.5463 262.425 31.8946 262.484C31.2429 262.543 30.713 262.594 30.3051 262.636C29.8389 262.685 29.4704 262.729 29.1995 262.767C28.7645 262.833 28.2479 262.917 27.6499 263.019C27.1382 263.102 26.5164 263.211 25.7844 263.347C25.0426 263.484 24.1903 263.642 23.2272 263.822Z" fill="white" fill-opacity="0.36"/>
<path d="M21.9258 241.033V239.934C21.9258 239.866 21.9307 239.788 21.9404 239.7C21.9502 239.622 21.96 239.534 21.9697 239.436C21.9697 239.329 21.9795 239.216 21.999 239.099C22.8096 239.148 23.5176 239.187 24.1231 239.216C24.7285 239.236 25.2363 239.25 25.6465 239.26C26.125 239.27 26.5303 239.27 26.8623 239.26C27.2139 239.26 27.6729 239.246 28.2393 239.216C28.7275 239.197 29.3574 239.167 30.1289 239.128C30.9004 239.089 31.8428 239.036 32.9561 238.967C32.9561 239.045 32.9609 239.128 32.9707 239.216C32.9707 239.304 32.9756 239.387 32.9854 239.465C32.9951 239.563 33 239.651 33 239.729C33 239.817 33.0098 239.915 33.0293 240.022C33.0488 240.11 33.0684 240.208 33.0879 240.315C33.1074 240.422 33.1367 240.535 33.1758 240.652C32.1699 240.632 31.3398 240.618 30.6855 240.608C30.0312 240.598 29.499 240.593 29.0889 240.593C28.6201 240.593 28.249 240.598 27.9756 240.608C27.5361 240.627 27.0137 240.657 26.4082 240.696C25.8906 240.725 25.2607 240.769 24.5186 240.828C23.7666 240.886 22.9023 240.955 21.9258 241.033Z" fill="white" fill-opacity="0.36"/>
<path d="M23.0117 218.232L23.1266 217.14C23.1337 217.072 23.1467 216.995 23.1656 216.908C23.1835 216.832 23.2024 216.745 23.2223 216.649C23.2335 216.542 23.255 216.432 23.2867 216.317C24.0877 216.45 24.7877 216.563 25.3868 216.656C25.9869 216.738 26.4904 216.806 26.8973 216.859C27.3722 216.918 27.7752 216.961 28.1065 216.986C28.4561 217.022 28.9141 217.056 29.4805 217.086C29.9681 217.118 30.5976 217.154 31.3689 217.196C32.1403 217.238 33.0831 217.283 34.1974 217.331C34.1893 217.409 34.1854 217.492 34.186 217.58C34.1768 217.668 34.1729 217.751 34.1745 217.83C34.174 217.928 34.1697 218.016 34.1615 218.093C34.1523 218.181 34.1518 218.279 34.16 218.388C34.1703 218.477 34.1795 218.576 34.1877 218.685C34.1959 218.794 34.2133 218.909 34.2399 219.03C33.2415 218.905 32.4175 218.804 31.7679 218.726C31.1182 218.647 30.5894 218.587 30.1815 218.544C29.7153 218.495 29.3457 218.461 29.0728 218.442C28.6337 218.416 28.111 218.39 27.5048 218.366C26.987 218.341 26.356 218.319 25.6117 218.299C24.8578 218.279 23.9911 218.257 23.0117 218.232Z" fill="white" fill-opacity="0.36"/>
<path d="M26.4766 195.67L26.705 194.595C26.7192 194.528 26.7402 194.453 26.768 194.369C26.7938 194.295 26.8217 194.211 26.8515 194.117C26.8739 194.012 26.9068 193.904 26.9502 193.794C27.7329 194.01 28.4173 194.196 29.0035 194.35C29.5916 194.495 30.0853 194.615 30.4845 194.71C30.9505 194.819 31.3469 194.903 31.6737 194.963C32.0176 195.036 32.4696 195.117 33.0297 195.206C33.5114 195.288 34.1336 195.391 34.8964 195.513C35.6591 195.635 36.5921 195.778 37.6952 195.943C37.679 196.019 37.6665 196.102 37.6578 196.19C37.6395 196.276 37.627 196.358 37.6203 196.436C37.6096 196.534 37.5961 196.621 37.5798 196.697C37.5616 196.783 37.5508 196.881 37.5476 196.99C37.5484 197.08 37.5472 197.179 37.544 197.289C37.5408 197.398 37.5461 197.514 37.5599 197.636C36.5801 197.408 35.7712 197.221 35.1332 197.076C34.4953 196.93 33.9757 196.815 33.5745 196.729C33.116 196.632 32.752 196.56 32.4825 196.512C32.0486 196.44 31.5314 196.36 30.9311 196.272C30.4187 196.193 29.7935 196.105 29.0553 196.008C28.3076 195.909 27.448 195.797 26.4766 195.67Z" fill="white" fill-opacity="0.36"/>
<path d="M32.2812 173.593L32.6207 172.548C32.6419 172.483 32.6707 172.411 32.7071 172.33C32.7405 172.259 32.777 172.178 32.8164 172.088C32.8496 171.986 32.8936 171.882 32.9484 171.777C33.7042 172.074 34.3655 172.33 34.9323 172.545C35.5021 172.75 35.9805 172.921 36.3676 173.057C36.8196 173.214 37.2051 173.34 37.5239 173.433C37.8582 173.542 38.2993 173.67 38.847 173.817C39.3174 173.949 39.9256 174.116 40.6714 174.317C41.4172 174.518 42.3301 174.758 43.41 175.037C43.3859 175.112 43.3649 175.192 43.347 175.279C43.3198 175.362 43.2987 175.443 43.2839 175.52C43.263 175.616 43.2405 175.701 43.2163 175.775C43.1892 175.859 43.1683 175.955 43.1537 176.063C43.1451 176.153 43.1335 176.252 43.1189 176.36C43.1042 176.468 43.0975 176.584 43.0984 176.707C42.1478 176.378 41.3629 176.108 40.7437 175.896C40.1244 175.685 39.6196 175.516 39.2295 175.389C38.7837 175.244 38.4294 175.134 38.1663 175.059C37.7423 174.942 37.2363 174.808 36.6484 174.658C36.1471 174.526 35.5345 174.373 34.8105 174.199C34.0772 174.023 33.2343 173.821 32.2812 173.593Z" fill="white" fill-opacity="0.36"/>
<path d="M40.3555 152.246L40.8024 151.242C40.8302 151.18 40.8664 151.11 40.9111 151.034C40.9518 150.966 40.9965 150.89 41.0451 150.805C41.0888 150.707 41.1434 150.608 41.2089 150.509C41.9295 150.883 42.5604 151.207 43.1016 151.48C43.6468 151.744 44.1048 151.964 44.4755 152.14C44.9087 152.343 45.2789 152.508 45.5862 152.634C45.9074 152.777 46.3326 152.951 46.862 153.154C47.316 153.335 47.9033 153.564 48.624 153.842C49.3447 154.121 50.2274 154.455 51.2723 154.845C51.2405 154.917 51.2112 154.994 51.1844 155.079C51.1486 155.159 51.1193 155.237 51.0965 155.312C51.0657 155.405 51.0344 155.488 51.0026 155.559C50.9668 155.639 50.936 155.732 50.9102 155.838C50.8923 155.927 50.8704 156.024 50.8446 156.13C50.8187 156.236 50.7998 156.351 50.7878 156.473C49.8769 156.046 49.1245 155.695 48.5307 155.42C47.937 155.145 47.4528 154.924 47.0781 154.758C46.6498 154.567 46.3088 154.421 46.0551 154.318C45.6457 154.157 45.1565 153.972 44.5875 153.761C44.1027 153.577 43.5094 153.361 42.8076 153.113C42.0968 152.861 41.2794 152.571 40.3555 152.246Z" fill="white" fill-opacity="0.36"/>
<path d="M50.6289 131.857L51.1782 130.906C51.2123 130.847 51.2556 130.782 51.308 130.71C51.3556 130.648 51.408 130.576 51.4653 130.497C51.519 130.404 51.5836 130.311 51.6591 130.22C52.3366 130.667 52.9302 131.055 53.4399 131.383C53.9545 131.703 54.387 131.969 54.7373 132.183C55.1468 132.43 55.4978 132.633 55.7902 132.791C56.0947 132.966 56.4995 133.183 57.0047 133.441C57.4373 133.668 57.9975 133.958 58.6851 134.31C59.3728 134.662 60.2158 135.086 61.2141 135.584C61.175 135.652 61.1377 135.726 61.1022 135.807C61.0583 135.883 61.021 135.957 60.9904 136.03C60.95 136.119 60.9103 136.198 60.8713 136.265C60.8273 136.342 60.7869 136.431 60.7502 136.534C60.7231 136.62 60.6912 136.714 60.6544 136.817C60.6176 136.92 60.5868 137.032 60.5621 137.153C59.7007 136.633 58.9892 136.205 58.4274 135.869C57.8657 135.534 57.4072 135.263 57.052 135.058C56.646 134.824 56.3222 134.643 56.0805 134.514C55.6902 134.312 55.2231 134.076 54.6792 133.807C54.2163 133.573 53.6488 133.297 52.9768 132.976C52.2963 132.651 51.5136 132.278 50.6289 131.857Z" fill="white" fill-opacity="0.36"/>
<path d="M62.9688 112.654L63.6145 111.765C63.6546 111.71 63.7045 111.65 63.7641 111.584C63.8179 111.527 63.8775 111.462 63.9428 111.388C64.0059 111.301 64.0799 111.216 64.1646 111.133C64.7916 111.649 65.3414 112.097 65.814 112.476C66.2923 112.848 66.6946 113.158 67.0206 113.407C67.402 113.696 67.7299 113.935 68.0043 114.122C68.2887 114.328 68.6686 114.586 69.1441 114.896C69.5506 115.167 70.0774 115.513 70.7245 115.935C71.3716 116.357 72.1656 116.868 73.1064 117.467C73.0605 117.53 73.0157 117.6 72.972 117.677C72.9203 117.748 72.8754 117.818 72.8374 117.887C72.7879 117.972 72.7402 118.045 72.6942 118.109C72.6426 118.18 72.5931 118.265 72.5457 118.363C72.5099 118.446 72.4683 118.536 72.4209 118.634C72.3736 118.733 72.3313 118.841 72.294 118.959C71.4917 118.352 70.8288 117.852 70.3052 117.459C69.7816 117.067 69.3539 116.75 69.0221 116.509C68.6428 116.233 68.3398 116.019 68.1129 115.866C67.7459 115.624 67.3059 115.341 66.7931 115.016C66.3571 114.736 65.8217 114.401 65.1868 114.012C64.5441 113.618 63.8048 113.165 62.9688 112.654Z" fill="white" fill-opacity="0.36"/>
<path d="M77.25 94.847L77.9851 94.0305C78.0309 93.9797 78.0868 93.9249 78.1528 93.8662C78.2124 93.8146 78.2784 93.7558 78.351 93.6898C78.4229 93.61 78.5053 93.5331 78.5983 93.459C79.1679 94.0377 79.668 94.5405 80.0983 94.9674C80.5352 95.387 80.9028 95.7377 81.201 96.0194C81.5501 96.3469 81.8513 96.618 82.1046 96.833C82.3658 97.0682 82.7167 97.3644 83.1572 97.7217C83.5332 98.0339 84.0209 98.4336 84.6203 98.9208C85.2198 99.408 85.9561 99.9986 86.8291 100.693C86.7769 100.751 86.7249 100.816 86.6734 100.888C86.6146 100.953 86.5627 101.018 86.5176 101.082C86.4596 101.162 86.4044 101.23 86.3521 101.288C86.2933 101.353 86.2352 101.433 86.1778 101.525C86.1335 101.604 86.0827 101.69 86.0253 101.782C85.968 101.875 85.9146 101.978 85.8652 102.092C85.1308 101.404 84.5237 100.838 84.044 100.393C83.5643 99.9476 83.1721 99.5879 82.8673 99.3134C82.5189 98.9998 82.2399 98.7551 82.0301 98.5794C81.6905 98.2998 81.2826 97.972 80.8065 97.5959C80.4023 97.2714 79.9048 96.8825 79.314 96.4295C78.716 95.9699 78.028 95.4424 77.25 94.847Z" fill="white" fill-opacity="0.36"/>
<path d="M93.3125 78.63L94.1289 77.8949C94.1797 77.8491 94.2411 77.8005 94.3129 77.7489C94.3775 77.7039 94.4494 77.6523 94.5285 77.5943C94.6083 77.5224 94.6983 77.4545 94.7984 77.3906C95.3045 78.0256 95.7492 78.5779 96.1326 79.0475C96.5232 79.5105 96.8521 79.8977 97.1193 80.209C97.4323 80.5711 97.7034 80.8723 97.9329 81.1125C98.1681 81.3738 98.4861 81.7051 98.8869 82.1064C99.2281 82.4562 99.6714 82.9047 100.217 83.4519C100.762 83.9991 101.432 84.6634 102.228 85.445C102.17 85.4973 102.112 85.5565 102.053 85.6225C101.988 85.6814 101.929 85.7405 101.878 85.8001C101.812 85.8727 101.749 85.9351 101.691 85.9874C101.626 86.0462 101.56 86.1188 101.493 86.2052C101.441 86.2785 101.382 86.3584 101.315 86.4448C101.248 86.5312 101.184 86.6281 101.123 86.7355C100.465 85.9749 99.9202 85.3483 99.4896 84.8555C99.0591 84.3627 98.7066 83.9639 98.4321 83.6591C98.1185 83.3108 97.8665 83.0383 97.6763 82.8416C97.3677 82.5281 96.9964 82.1594 96.5622 81.7356C96.1941 81.3706 95.74 80.9319 95.1998 80.4196C94.6531 79.9 94.024 79.3034 93.3125 78.63Z" fill="white" fill-opacity="0.36"/>
<path d="M110.984 64.1817L111.873 63.536C111.928 63.4958 111.995 63.4538 112.071 63.4101C112.14 63.372 112.217 63.3283 112.302 63.2788C112.389 63.2156 112.485 63.1575 112.592 63.1045C113.029 63.7889 113.413 64.3847 113.745 64.8917C114.085 65.393 114.372 65.8125 114.605 66.15C114.879 66.5429 115.117 66.8708 115.32 67.1336C115.527 67.4181 115.808 67.7808 116.165 68.2218C116.468 68.6053 116.862 69.0977 117.347 69.6989C117.832 70.3001 118.429 71.0309 119.139 71.8914C119.076 71.9373 119.011 71.9901 118.946 72.0496C118.875 72.1013 118.81 72.154 118.753 72.2078C118.68 72.2731 118.612 72.3287 118.548 72.3747C118.477 72.4263 118.404 72.4916 118.329 72.5706C118.269 72.638 118.201 72.7112 118.126 72.7902C118.051 72.8691 117.977 72.9588 117.905 73.0593C117.33 72.2341 116.854 71.5539 116.477 71.0188C116.1 70.4838 115.791 70.0503 115.55 69.7185C115.275 69.3393 115.053 69.0419 114.884 68.8264C114.61 68.4824 114.279 68.0769 113.892 67.6101C113.564 67.2086 113.158 66.7248 112.674 66.1588C112.185 65.5849 111.622 64.9259 110.984 64.1817Z" fill="white" fill-opacity="0.36"/>
<path d="M130.07 51.6583L131.022 51.109C131.081 51.0748 131.151 51.04 131.232 51.0045C131.305 50.9739 131.386 50.9384 131.475 50.898C131.568 50.8443 131.67 50.7966 131.781 50.7549C132.144 51.4813 132.465 52.114 132.742 52.653C133.028 53.1871 133.269 53.6342 133.466 53.9943C133.696 54.4136 133.899 54.7646 134.074 55.0472C134.249 55.3517 134.492 55.7418 134.8 56.2177C135.061 56.6308 135.401 57.1617 135.821 57.8103C136.241 58.4589 136.758 59.2481 137.374 60.1781C137.307 60.2171 137.237 60.2629 137.166 60.3153C137.09 60.3592 137.02 60.4049 136.957 60.4525C136.878 60.5098 136.804 60.5579 136.736 60.597C136.66 60.6409 136.581 60.6982 136.497 60.7688C136.431 60.8297 136.356 60.8954 136.273 60.9661C136.19 61.0367 136.107 61.1182 136.025 61.2106C135.539 60.3298 135.137 59.6036 134.818 59.0321C134.499 58.4605 134.238 57.9972 134.032 57.642C133.798 57.236 133.608 56.9171 133.463 56.6852C133.226 56.3144 132.94 55.8765 132.603 55.3717C132.319 54.9381 131.966 54.4146 131.544 53.8012C131.118 53.1792 130.626 52.465 130.07 51.6583Z" fill="white" fill-opacity="0.36"/>
<path d="M150.359 41.2L151.363 40.7532C151.425 40.7253 151.499 40.698 151.583 40.6712C151.658 40.6484 151.743 40.6215 151.836 40.5907C151.934 40.547 152.041 40.5103 152.156 40.4805C152.441 41.2408 152.693 41.9035 152.912 42.4685C153.141 43.0296 153.334 43.4994 153.492 43.8781C153.678 44.3192 153.842 44.6895 153.986 44.9888C154.129 45.31 154.33 45.7233 154.587 46.2289C154.803 46.667 155.086 47.2305 155.436 47.9194C155.785 48.6083 156.217 49.4473 156.733 50.4366C156.661 50.4684 156.587 50.5066 156.511 50.5512C156.431 50.587 156.357 50.6252 156.29 50.6659C156.204 50.7146 156.126 50.7548 156.055 50.7865C155.974 50.8223 155.889 50.8709 155.799 50.9325C155.727 50.9861 155.645 51.0436 155.555 51.1052C155.465 51.1667 155.374 51.2391 155.283 51.3225C154.892 50.3956 154.568 49.6314 154.31 49.0297C154.053 48.428 153.841 47.9398 153.674 47.5651C153.484 47.1368 153.328 46.7998 153.208 46.554C153.012 46.1605 152.772 45.6951 152.49 45.1579C152.253 44.697 151.957 44.1394 151.601 43.4852C151.242 42.8221 150.828 42.0604 150.359 41.2Z" fill="white" fill-opacity="0.36"/>
<path d="M171.629 32.9185L172.674 32.579C172.739 32.5578 172.815 32.5383 172.901 32.5205C172.979 32.5056 173.065 32.4877 173.161 32.4669C173.263 32.4337 173.373 32.4082 173.491 32.3906C173.695 33.1766 173.876 33.862 174.035 34.4469C174.204 35.0288 174.347 35.5162 174.464 35.9093C174.603 36.3674 174.728 36.7529 174.84 37.0656C174.949 37.4 175.105 37.832 175.307 38.3616C175.477 38.82 175.699 39.41 175.975 40.1316C176.251 40.8533 176.593 41.7329 177.002 42.7706C176.928 42.7948 176.85 42.8251 176.77 42.8615C176.686 42.8887 176.609 42.919 176.537 42.9524C176.447 42.9919 176.365 43.0237 176.291 43.0478C176.207 43.075 176.118 43.1144 176.021 43.1662C175.944 43.2119 175.857 43.2607 175.761 43.3124C175.665 43.3642 175.567 43.4268 175.468 43.5002C175.175 42.5375 174.933 41.7435 174.74 41.1182C174.547 40.4929 174.387 39.9852 174.26 39.5952C174.116 39.1494 173.996 38.7979 173.902 38.5409C173.748 38.129 173.559 37.6411 173.335 37.0774C173.147 36.5942 172.91 36.0087 172.625 35.321C172.337 34.6239 172.005 33.8231 171.629 32.9185Z" fill="white" fill-opacity="0.36"/>
<path d="M193.648 26.9056L194.723 26.6771C194.79 26.6629 194.867 26.6515 194.955 26.6427C195.034 26.6361 195.122 26.6273 195.219 26.6166C195.324 26.5942 195.436 26.5805 195.555 26.5752C195.676 27.3782 195.785 28.0788 195.882 28.6772C195.989 29.2735 196.08 29.7732 196.156 30.1764C196.246 30.6465 196.33 31.043 196.408 31.3657C196.482 31.7096 196.591 32.1555 196.738 32.7034C196.858 33.177 197.018 33.787 197.217 34.5335C197.415 35.28 197.664 36.1906 197.962 37.2654C197.886 37.2816 197.805 37.3036 197.721 37.3315C197.636 37.3497 197.555 37.3718 197.481 37.3976C197.387 37.4274 197.302 37.4505 197.226 37.4667C197.14 37.485 197.047 37.5149 196.946 37.5563C196.864 37.5937 196.772 37.6331 196.671 37.6745C196.57 37.716 196.466 37.768 196.36 37.8305C196.17 36.8426 196.012 36.0276 195.885 35.3856C195.759 34.7436 195.653 34.2219 195.568 33.8207C195.47 33.3622 195.388 33.0003 195.322 32.7348C195.211 32.3091 195.074 31.8041 194.91 31.22C194.774 30.7198 194.6 30.1128 194.388 29.399C194.174 28.6757 193.928 27.8445 193.648 26.9056Z" fill="white" fill-opacity="0.36"/>
<path d="M216.18 23.2292L217.272 23.1143C217.34 23.1072 217.419 23.1039 217.507 23.1044C217.586 23.106 217.674 23.1065 217.772 23.106C217.879 23.0948 217.992 23.0927 218.11 23.0999C218.147 23.9111 218.182 24.6193 218.216 25.2245C218.26 25.8287 218.298 26.3353 218.331 26.7442C218.372 27.2211 218.414 27.6242 218.458 27.9534C218.495 28.303 218.558 28.758 218.646 29.3182C218.717 29.8018 218.812 30.4252 218.931 31.1883C219.051 31.9515 219.202 32.8831 219.387 33.9832C219.309 33.9913 219.227 34.0049 219.141 34.0238C219.053 34.0329 218.971 34.0465 218.895 34.0644C218.798 34.0843 218.712 34.0983 218.634 34.1065C218.546 34.1157 218.45 34.1356 218.346 34.1662C218.26 34.1949 218.165 34.2245 218.06 34.2551C217.956 34.2858 217.847 34.3267 217.734 34.3778C217.649 33.3754 217.577 32.5483 217.518 31.8966C217.459 31.2448 217.408 30.715 217.366 30.3071C217.317 29.8409 217.273 29.4724 217.235 29.2014C217.169 28.7664 217.085 28.2499 216.983 27.6518C216.9 27.1401 216.791 26.5183 216.655 25.7863C216.518 25.0446 216.36 24.1922 216.18 23.2292Z" fill="white" fill-opacity="0.36"/>
<path d="M238.395 20.0195L240.08 20.0195C240.185 20.0195 240.305 20.027 240.439 20.042C240.559 20.057 240.694 20.0719 240.844 20.0869C241.008 20.0869 241.181 20.1019 241.36 20.1318C241.285 21.3747 241.226 22.4603 241.181 23.3887C241.151 24.3171 241.128 25.0957 241.113 25.7246C241.098 26.4583 241.098 27.0798 241.113 27.5889C241.113 28.1279 241.136 28.8317 241.181 29.7002C241.211 30.4489 241.256 31.4147 241.315 32.5977C241.375 33.7806 241.458 35.2256 241.562 36.9326C241.443 36.9326 241.315 36.9401 241.181 36.9551C241.046 36.9551 240.919 36.9626 240.799 36.9775C240.649 36.9925 240.514 37 240.395 37C240.26 37 240.11 37.015 239.945 37.0449C239.811 37.0749 239.661 37.1048 239.496 37.1348C239.331 37.1647 239.159 37.2096 238.979 37.2695C239.009 35.7272 239.032 34.4544 239.047 33.4512C239.062 32.4479 239.069 31.6318 239.069 31.0029C239.069 30.2842 239.062 29.7152 239.047 29.2959C239.017 28.6221 238.972 27.821 238.912 26.8926C238.867 26.099 238.8 25.1331 238.71 23.9951C238.62 22.8421 238.515 21.5169 238.395 20.0195Z" fill="#727272"/>
<path d="M348.1 49.5674L349.558 50.4097C349.649 50.4621 349.749 50.5285 349.858 50.6088C349.955 50.6817 350.064 50.762 350.186 50.8499C350.329 50.9322 350.47 51.0313 350.611 51.1471C349.925 52.186 349.33 53.0962 348.827 53.8777C348.337 54.6668 347.928 55.3299 347.601 55.867C347.221 56.495 346.91 57.0331 346.669 57.4815C346.399 57.9484 346.067 58.5691 345.671 59.3437C345.323 60.007 344.879 60.8659 344.339 61.9203C343.8 62.9747 343.149 64.2673 342.386 65.7981C342.282 65.7382 342.168 65.681 342.044 65.6266C341.927 65.5592 341.813 65.502 341.702 65.4551C341.565 65.3932 341.444 65.3323 341.341 65.2724C341.224 65.205 341.087 65.1431 340.929 65.0867C340.797 65.0453 340.653 64.9963 340.495 64.9399C340.338 64.8835 340.166 64.8363 339.98 64.7983C340.777 63.4776 341.433 62.3866 341.948 61.5252C342.462 60.6639 342.877 59.9609 343.191 59.4162C343.551 58.7938 343.829 58.2972 344.026 57.9266C344.337 57.3281 344.698 56.6119 345.11 55.7779C345.468 55.0682 345.893 54.1981 346.384 53.1676C346.883 52.1241 347.455 50.9241 348.1 49.5674Z" fill="#727272"/>
<path d="M428.831 129.138L429.673 130.597C429.726 130.688 429.779 130.795 429.834 130.92C429.88 131.031 429.935 131.155 429.997 131.292C430.079 131.435 430.152 131.591 430.216 131.762C429.102 132.319 428.132 132.809 427.306 133.235C426.487 133.673 425.801 134.043 425.249 134.344C424.606 134.698 424.068 135.009 423.635 135.277C423.168 135.546 422.57 135.917 421.84 136.391C421.206 136.791 420.393 137.313 419.398 137.956C418.404 138.599 417.193 139.393 415.767 140.337C415.707 140.234 415.637 140.127 415.557 140.018C415.49 139.901 415.419 139.795 415.347 139.699C415.259 139.576 415.185 139.463 415.125 139.36C415.058 139.243 414.97 139.121 414.862 138.993C414.768 138.891 414.667 138.777 414.559 138.649C414.451 138.521 414.326 138.395 414.184 138.269C415.535 137.524 416.648 136.907 417.525 136.418C418.401 135.929 419.111 135.528 419.656 135.213C420.278 134.854 420.768 134.563 421.123 134.34C421.692 133.978 422.363 133.538 423.137 133.022C423.802 132.586 424.605 132.045 425.545 131.398C426.499 130.744 427.594 129.991 428.831 129.138Z" fill="#727272"/>
<path d="M459.961 238.417V240.101C459.961 240.206 459.953 240.326 459.938 240.46C459.924 240.58 459.909 240.715 459.894 240.865C459.894 241.029 459.879 241.202 459.849 241.381C458.606 241.306 457.52 241.247 456.592 241.202C455.663 241.172 454.885 241.149 454.256 241.134C453.522 241.119 452.901 241.119 452.392 241.134C451.853 241.134 451.149 241.157 450.28 241.202C449.532 241.232 448.566 241.277 447.383 241.336C446.2 241.396 444.755 241.479 443.048 241.583C443.048 241.464 443.04 241.336 443.025 241.202C443.025 241.067 443.018 240.94 443.003 240.82C442.988 240.67 442.98 240.535 442.98 240.416C442.98 240.281 442.965 240.131 442.936 239.966C442.906 239.832 442.876 239.682 442.846 239.517C442.816 239.352 442.771 239.18 442.711 239C444.253 239.03 445.526 239.053 446.529 239.068C447.533 239.083 448.349 239.09 448.978 239.09C449.696 239.09 450.265 239.083 450.685 239.068C451.358 239.038 452.16 238.993 453.088 238.933C453.882 238.888 454.847 238.821 455.985 238.731C457.138 238.641 458.464 238.536 459.961 238.417Z" fill="#727272"/>
<path d="M430.411 348.119L429.569 349.578C429.516 349.668 429.45 349.768 429.37 349.878C429.297 349.974 429.216 350.083 429.129 350.205C429.046 350.348 428.947 350.489 428.831 350.63C427.793 349.944 426.882 349.349 426.101 348.846C425.312 348.356 424.649 347.947 424.111 347.62C423.484 347.24 422.945 346.929 422.497 346.688C422.03 346.418 421.409 346.086 420.635 345.69C419.971 345.342 419.113 344.898 418.058 344.358C417.004 343.819 415.711 343.168 414.18 342.405C414.24 342.301 414.298 342.187 414.352 342.063C414.419 341.946 414.476 341.832 414.523 341.721C414.585 341.584 414.646 341.463 414.706 341.36C414.773 341.243 414.835 341.106 414.892 340.948C414.933 340.816 414.982 340.672 415.039 340.514C415.095 340.357 415.142 340.185 415.18 339.999C416.501 340.796 417.592 341.452 418.453 341.967C419.315 342.482 420.018 342.896 420.562 343.211C421.185 343.57 421.681 343.848 422.052 344.045C422.65 344.356 423.367 344.717 424.201 345.13C424.91 345.487 425.78 345.912 426.811 346.403C427.854 346.902 429.054 347.474 430.411 348.119Z" fill="#727272"/>
<path d="M350.844 428.852L349.385 429.694C349.294 429.746 349.187 429.8 349.062 429.854C348.951 429.901 348.827 429.955 348.69 430.017C348.547 430.1 348.391 430.173 348.22 430.237C347.663 429.123 347.172 428.153 346.747 427.326C346.309 426.507 345.939 425.822 345.638 425.27C345.284 424.627 344.973 424.089 344.705 423.655C344.436 423.188 344.065 422.59 343.591 421.86C343.191 421.227 342.669 420.413 342.026 419.419C341.383 418.424 340.589 417.214 339.645 415.788C339.748 415.728 339.855 415.658 339.964 415.578C340.081 415.51 340.187 415.44 340.283 415.367C340.406 415.279 340.519 415.205 340.622 415.146C340.739 415.078 340.861 414.99 340.989 414.882C341.091 414.789 341.205 414.688 341.333 414.58C341.461 414.471 341.587 414.346 341.713 414.205C342.458 415.555 343.075 416.669 343.564 417.545C344.053 418.421 344.454 419.132 344.769 419.677C345.128 420.299 345.419 420.788 345.642 421.144C346.004 421.712 346.444 422.384 346.96 423.158C347.396 423.822 347.937 424.625 348.584 425.566C349.238 426.519 349.991 427.615 350.844 428.852Z" fill="#727272"/>
<path d="M131.863 430.435L130.404 429.592C130.314 429.54 130.214 429.473 130.104 429.393C130.008 429.32 129.899 429.24 129.777 429.152C129.634 429.07 129.492 428.971 129.352 428.855C130.038 427.816 130.633 426.906 131.136 426.124C131.626 425.335 132.035 424.672 132.362 424.135C132.742 423.507 133.053 422.969 133.294 422.52C133.564 422.054 133.896 421.433 134.292 420.658C134.64 419.995 135.084 419.136 135.624 418.082C136.163 417.027 136.814 415.735 137.577 414.204C137.681 414.264 137.795 414.321 137.919 414.375C138.036 414.443 138.15 414.5 138.261 414.547C138.398 414.609 138.519 414.67 138.622 414.73C138.739 414.797 138.876 414.859 139.034 414.915C139.166 414.957 139.31 415.006 139.468 415.062C139.625 415.118 139.797 415.166 139.983 415.204C139.185 416.524 138.53 417.615 138.015 418.477C137.5 419.338 137.086 420.041 136.771 420.586C136.412 421.208 136.134 421.705 135.937 422.075C135.626 422.674 135.265 423.39 134.852 424.224C134.495 424.934 134.07 425.804 133.579 426.834C133.08 427.878 132.508 429.078 131.863 430.435Z" fill="#727272"/>
<path d="M51.1274 350.862L50.2851 349.403C50.2327 349.312 50.1793 349.205 50.1249 349.08C50.078 348.969 50.0235 348.845 49.9616 348.708C49.8793 348.565 49.8062 348.409 49.7422 348.238C50.856 347.681 51.8261 347.191 52.6526 346.765C53.4716 346.327 54.1571 345.957 54.7093 345.656C55.3522 345.302 55.8903 344.991 56.3238 344.723C56.7906 344.454 57.3889 344.083 58.1185 343.609C58.7519 343.209 59.5659 342.687 60.5604 342.044C61.5549 341.401 62.7651 340.607 64.1911 339.663C64.251 339.766 64.3211 339.873 64.4014 339.982C64.4688 340.099 64.5389 340.205 64.6118 340.301C64.6996 340.424 64.7735 340.537 64.8334 340.64C64.9008 340.757 64.9886 340.879 65.0969 341.007C65.1902 341.109 65.291 341.223 65.3993 341.351C65.5076 341.479 65.6326 341.605 65.7744 341.731C64.4237 342.476 63.3102 343.093 62.4339 343.582C61.5575 344.071 60.847 344.472 60.3024 344.787C59.6799 345.146 59.1909 345.437 58.8353 345.66C58.2667 346.022 57.5954 346.462 56.8213 346.978C56.1565 347.414 55.3538 347.955 54.4131 348.602C53.4595 349.256 52.3643 350.009 51.1274 350.862Z" fill="#727272"/>
<path d="M20 241.583V239.899C20 239.794 20.0075 239.674 20.0225 239.54C20.0374 239.42 20.0524 239.285 20.0674 239.135C20.0674 238.971 20.0824 238.798 20.1123 238.619C21.3551 238.694 22.4408 238.753 23.3691 238.798C24.2975 238.828 25.0762 238.851 25.7051 238.866C26.4388 238.881 27.0602 238.881 27.5693 238.866C28.1084 238.866 28.8122 238.843 29.6807 238.798C30.4294 238.768 31.3952 238.723 32.5781 238.664C33.7611 238.604 35.2061 238.521 36.9131 238.417C36.9131 238.536 36.9206 238.664 36.9355 238.798C36.9355 238.933 36.943 239.06 36.958 239.18C36.973 239.33 36.9805 239.465 36.9805 239.584C36.9805 239.719 36.9954 239.869 37.0254 240.034C37.0553 240.168 37.0853 240.318 37.1152 240.483C37.1452 240.648 37.1901 240.82 37.25 241C35.7077 240.97 34.4349 240.947 33.4316 240.932C32.4284 240.917 31.6123 240.91 30.9834 240.91C30.2646 240.91 29.6956 240.917 29.2764 240.932C28.6025 240.962 27.8014 241.007 26.8731 241.067C26.0794 241.112 25.1136 241.179 23.9756 241.269C22.8226 241.359 21.4974 241.464 20 241.583Z" fill="#727272"/>
<path d="M49.5469 131.881L50.3892 130.422C50.4416 130.332 50.508 130.232 50.5884 130.122C50.6612 130.026 50.7416 129.917 50.8294 129.795C50.9118 129.652 51.0108 129.511 51.1266 129.37C52.1655 130.056 53.0757 130.651 53.8573 131.154C54.6463 131.644 55.3094 132.053 55.8466 132.38C56.4745 132.76 57.0127 133.071 57.4611 133.312C57.9279 133.582 58.5486 133.914 59.3232 134.31C59.9866 134.658 60.8455 135.102 61.8999 135.642C62.9543 136.181 64.2468 136.832 65.7776 137.595C65.7177 137.699 65.6605 137.813 65.6061 137.937C65.5387 138.054 65.4816 138.168 65.4347 138.279C65.3728 138.416 65.3119 138.537 65.252 138.64C65.1846 138.757 65.1227 138.894 65.0663 139.052C65.0248 139.184 64.9759 139.328 64.9194 139.486C64.863 139.643 64.8158 139.815 64.7779 140.001C63.4571 139.204 62.3661 138.548 61.5048 138.033C60.6434 137.518 59.9404 137.104 59.3957 136.789C58.7733 136.43 58.2768 136.152 57.9062 135.955C57.3077 135.644 56.5914 135.283 55.7575 134.87C55.0477 134.513 54.1776 134.088 53.1471 133.597C52.1037 133.098 50.9036 132.526 49.5469 131.881Z" fill="#727272"/>
<path d="M129.117 51.1488L130.576 50.3065C130.667 50.2541 130.774 50.2007 130.898 50.1463C131.01 50.0994 131.134 50.045 131.271 49.9831C131.414 49.9007 131.57 49.8276 131.741 49.7637C132.298 50.8774 132.788 51.8475 133.214 52.674C133.652 53.493 134.022 54.1785 134.323 54.7307C134.677 55.3736 134.988 55.9118 135.255 56.3452C135.525 56.812 135.896 57.4103 136.369 58.1399C136.77 58.7734 137.292 59.5873 137.935 60.5818C138.578 61.5764 139.372 62.7866 140.316 64.2125C140.213 64.2724 140.106 64.3425 139.997 64.4229C139.88 64.4902 139.774 64.5604 139.677 64.6332C139.555 64.7211 139.442 64.7949 139.339 64.8548C139.222 64.9222 139.1 65.0101 138.972 65.1183C138.87 65.2117 138.756 65.3125 138.628 65.4208C138.5 65.5291 138.374 65.6541 138.248 65.7958C137.503 64.4451 136.886 63.3316 136.397 62.4553C135.908 61.579 135.507 60.8685 135.192 60.3238C134.833 59.7014 134.542 59.2123 134.319 58.8567C133.957 58.2881 133.517 57.6168 133.001 56.8428C132.565 56.1779 132.024 55.3752 131.377 54.4346C130.723 53.481 129.97 52.3857 129.117 51.1488Z" fill="#727272"/>
</g>
<defs>
<clipPath id="clip0_2268_1979">
<rect width="440" height="411" fill="white" transform="translate(20 20)"/>
</clipPath>
</defs>
</svg>
